<?xml version="1.0" encoding="UTF-8"?>
<svg id="Capa_2" data-name="Capa 2" xmlns="http://www.w3.org/2000/svg" viewBox="0 0 49.3 56.44">
  <defs>
    <style>
      .cls-1 {
        fill: #ccc;
      }
    </style>
  </defs>
  <g id="Capa_1-2" data-name="Capa 1">
    <g id="Grupo_15" data-name="Grupo 15">
      <g id="Grupo_14" data-name="Grupo 14">
        <path id="Trazado_25" data-name="Trazado 25" class="cls-1" d="M49.25,52.75l-4.39-36.88c-.38-2.09-2.17-3.63-4.29-3.69H8.73c-2.12,.06-3.91,1.6-4.29,3.69L.05,52.75c-.32,1.69,.8,3.32,2.49,3.64,.22,.04,.45,.06,.68,.05H46.06c1.73,.06,3.17-1.3,3.23-3.02,0-.22,0-.45-.05-.67ZM10.56,23.68c0-1.7,1.38-3.08,3.07-3.08,1.7,0,3.07,1.38,3.07,3.07h0c0,1.7-1.37,3.08-3.06,3.08,0,0,0,0,0,0-1.7,0-3.07-1.38-3.07-3.08Zm14.08,19.68c-6.4,0-12.87-4.31-12.87-12.54,0-1.03,.83-1.87,1.87-1.87h0c1.03,0,1.86,.84,1.87,1.87,0,6.06,4.74,8.81,9.14,8.81s9.14-2.76,9.14-8.81c0-1.03,.84-1.87,1.87-1.87h0c1.03,0,1.87,.84,1.87,1.87h0c0,8.23-6.47,12.54-12.87,12.54h0Zm15.47-17.64c-.6,.84-1.77,1.03-2.6,.43-1.9-1.36-4.23,.04-4.26,.06-.3,.19-.65,.29-1,.29-.64,0-1.23-.32-1.57-.86-.55-.87-.29-2.03,.58-2.58,.18-.11,4.47-2.77,8.42,.06,.84,.6,1.04,1.76,.44,2.6,0,0,0,0,0,0h0Z"/>
      </g>
      <path id="Trazado_26" data-name="Trazado 26" class="cls-1" d="M35.65,14.41c-1.03,0-1.87-.84-1.87-1.87h0c0-6.05-4.74-8.81-9.14-8.81s-9.14,2.76-9.14,8.81c0,1.03-.84,1.87-1.87,1.87h0c-1.03,0-1.87-.84-1.87-1.87h0C11.77,4.31,18.24,0,24.64,0s12.88,4.3,12.88,12.54c0,1.03-.83,1.87-1.87,1.87h0Z"/>
    </g>
  </g>
</svg>