<?xml version="1.0" encoding="UTF-8"?>
<svg id="Capa_2" data-name="Capa 2" xmlns="http://www.w3.org/2000/svg" viewBox="0 0 165.86 80.81">
  <defs>
    <style>
      .cls-1 {
        fill: #fff;
      }

      .cls-2 {
        fill: #ffca22;
      }
    </style>
  </defs>
  <g id="Capa_1-2" data-name="Capa 1">
    <g id="Grupo_15" data-name="Grupo 15">
      <g id="Grupo_14" data-name="Grupo 14">
        <path id="Trazado_25" data-name="Trazado 25" class="cls-2" d="M49.25,52.75l-4.39-36.88c-.38-2.09-2.17-3.63-4.29-3.69H8.73c-2.12,.06-3.91,1.6-4.29,3.69L.05,52.75c-.32,1.69,.8,3.32,2.49,3.64,.22,.04,.45,.06,.68,.05H46.06c1.73,.06,3.17-1.3,3.23-3.02,0-.22,0-.45-.05-.67ZM10.56,23.68c0-1.7,1.38-3.08,3.07-3.08,1.7,0,3.07,1.38,3.07,3.07h0c0,1.7-1.37,3.08-3.06,3.08,0,0,0,0,0,0-1.7,0-3.07-1.38-3.07-3.08Zm14.08,19.68c-6.4,0-12.87-4.31-12.87-12.54,0-1.03,.83-1.87,1.87-1.87h0c1.03,0,1.86,.84,1.87,1.87,0,6.06,4.74,8.81,9.14,8.81s9.14-2.76,9.14-8.81c0-1.03,.84-1.87,1.87-1.87h0c1.03,0,1.87,.84,1.87,1.87h0c0,8.23-6.47,12.54-12.87,12.54h0Zm15.47-17.64c-.6,.84-1.77,1.03-2.6,.43-1.9-1.36-4.23,.04-4.26,.06-.3,.19-.65,.29-1,.29-.64,0-1.23-.32-1.57-.86-.55-.87-.29-2.03,.58-2.58,.18-.11,4.47-2.77,8.42,.06,.84,.6,1.04,1.76,.44,2.6,0,0,0,0,0,0h0Z"/>
      </g>
      <path id="Trazado_26" data-name="Trazado 26" class="cls-2" d="M35.65,14.41c-1.03,0-1.87-.84-1.87-1.87h0c0-6.05-4.74-8.81-9.14-8.81s-9.14,2.76-9.14,8.81c0,1.03-.84,1.87-1.87,1.87h0c-1.03,0-1.87-.84-1.87-1.87h0C11.77,4.31,18.24,0,24.64,0s12.88,4.3,12.88,12.54c0,1.03-.83,1.87-1.87,1.87h0Z"/>
    </g>
    <path id="Trazado_46" data-name="Trazado 46" class="cls-1" d="M72.84,48.46h5.44l-8.32-22.08h-5.86l-8.29,22.08h5.31l1.38-3.87h8.96l1.38,3.87Zm-8.74-8.45l2.88-8.16,2.88,8.16h-5.76Zm25.89-8.25c-1.85-.04-3.63,.69-4.93,2.01v-1.63h-4.67v22.4h4.67v-7.71c1.3,1.32,3.08,2.05,4.93,2.02,4.51,0,7.87-3.68,7.87-8.54s-3.36-8.54-7.87-8.54Zm-.93,12.57c-2.16,.05-3.95-1.66-4-3.82,0-.07,0-.14,0-.21-.07-2.16,1.63-3.96,3.79-4.03,.07,0,.14,0,.21,0,2.16-.05,3.95,1.66,4,3.82,0,.07,0,.14,0,.21,.07,2.16-1.63,3.96-3.79,4.03-.07,0-.14,0-.21,0Zm21.22-12.57c-1.85-.03-3.63,.69-4.93,2.02v-1.64h-4.67v22.4h4.67v-7.71c1.3,1.32,3.08,2.05,4.93,2.02,4.51,0,7.87-3.68,7.87-8.54s-3.36-8.54-7.87-8.54Zm-.93,12.57c-2.16,.05-3.95-1.66-4-3.82,0-.07,0-.14,0-.21-.07-2.16,1.63-3.96,3.79-4.03,.07,0,.14,0,.21,0,2.16-.05,3.95,1.66,4,3.82,0,.07,0,.14,0,.21,.07,2.16-1.63,3.96-3.79,4.03-.07,0-.14,0-.21,0Z"/>
    <path id="Trazado_47" data-name="Trazado 47" class="cls-1" d="M141.15,25.42v8.35c-1.3-1.32-3.08-2.05-4.93-2.01-4.48,0-7.87,3.68-7.87,8.54s3.39,8.54,7.87,8.54c1.85,.03,3.63-.69,4.93-2.02v1.63h4.67V25.42h-4.67Zm-4,18.91c-2.15,.04-3.93-1.68-3.97-3.83,0-.07,0-.14,0-.2-.07-2.15,1.61-3.96,3.77-4.03,.07,0,.14,0,.2,0,2.16-.05,3.95,1.66,4,3.82,0,.07,0,.14,0,.21,.07,2.16-1.63,3.96-3.79,4.03-.07,0-.14,0-.21,0Zm28.7-3.97c.13-4.62-3.51-8.47-8.13-8.6-.15,0-.3,0-.44,0-4.64-.17-8.53,3.46-8.69,8.09,0,.12,0,.24,0,.35,0,4.93,3.9,8.64,9.09,8.64,2.79,.05,5.48-1.1,7.36-3.17l-3.14-2.72c-1.03,1.19-2.53,1.85-4.1,1.82-1.91,.09-3.63-1.12-4.19-2.94h12.16c.07-.49,.1-.98,.1-1.48Zm-8.64-4.58c1.76,0,3.29,1.23,3.68,2.95h-7.32c.37-1.72,1.89-2.94,3.65-2.94h0Z"/>
    <path id="Trazado_48" data-name="Trazado 48" class="cls-1" d="M11.67,65.67l-3.39,9.43-3.42-9.43H0l6.03,14.79h4.35l6-14.79h-4.72Zm20.44,7.45c.12-4.19-3.18-7.68-7.36-7.8-.14,0-.27,0-.41,0-4.2-.15-7.73,3.13-7.88,7.33,0,.11,0,.21,0,.32,0,4.47,3.54,7.83,8.24,7.83,2.53,.05,4.96-1,6.67-2.87l-2.84-2.47c-.93,1.08-2.29,1.68-3.71,1.65-1.73,.08-3.29-1.01-3.8-2.66h11.02c.06-.44,.09-.89,.09-1.34Zm-7.83-4.15c1.6,0,2.98,1.11,3.33,2.67h-6.63c.34-1.55,1.71-2.66,3.3-2.67Zm19-3.65c-1.69-.05-3.32,.62-4.5,1.83v-1.48h-4.23v14.79h4.23v-8.03c-.08-1.58,1.13-2.93,2.71-3.02,.11,0,.22,0,.33,0,1.51-.08,2.8,1.07,2.88,2.58,0,.13,0,.25,0,.38v8.09h4.23v-9.51c.17-2.93-2.06-5.45-4.99-5.63-.22-.01-.44-.01-.66,0Zm19.54-5.74v7.57c-1.17-1.2-2.79-1.86-4.47-1.83-4.06,0-7.13,3.34-7.13,7.74s3.07,7.74,7.13,7.74c1.68,.03,3.29-.63,4.47-1.83v1.48h4.23v-20.88h-4.23Zm-3.62,17.14c-1.95,.04-3.57-1.52-3.6-3.47,0-.06,0-.12,0-.18-.06-1.95,1.47-3.59,3.42-3.65,.06,0,.12,0,.18,0,1.96-.05,3.58,1.5,3.63,3.46,0,.06,0,.13,0,.19,.06,1.96-1.47,3.59-3.43,3.66-.07,0-.13,0-.2,0Zm26.01-3.6c.12-4.19-3.18-7.68-7.36-7.8-.14,0-.27,0-.41,0-4.2-.15-7.73,3.13-7.88,7.33,0,.11,0,.21,0,.32,0,4.47,3.54,7.83,8.24,7.83,2.53,.05,4.96-1,6.67-2.87l-2.84-2.46c-.93,1.08-2.29,1.68-3.71,1.65-1.73,.08-3.29-1.01-3.8-2.66h11.02c.06-.44,.09-.89,.09-1.34h0Zm-7.83-4.15c1.6,0,2.98,1.11,3.33,2.67h-6.64c.34-1.55,1.71-2.66,3.3-2.67Zm21.05-9.4v7.57c-1.17-1.2-2.79-1.86-4.47-1.83-4.06,0-7.13,3.34-7.13,7.74s3.08,7.75,7.14,7.75c1.68,.03,3.29-.63,4.47-1.83v1.48h4.23v-20.88h-4.24Zm-3.62,17.14c-1.95,.04-3.57-1.52-3.6-3.47,0-.06,0-.12,0-.18-.06-1.95,1.47-3.59,3.42-3.65,.06,0,.12,0,.18,0,1.96-.05,3.58,1.5,3.63,3.46,0,.06,0,.13,0,.19,.06,1.96-1.47,3.59-3.43,3.66-.07,0-.13,0-.2,0Zm18.33,4.09c4.24,.16,7.81-3.15,7.97-7.4,0-.12,0-.23,0-.35,.03-4.25-3.38-7.72-7.63-7.75-.12,0-.23,0-.35,0-4.24-.16-7.81,3.15-7.97,7.4,0,.12,0,.23,0,.35-.04,4.25,3.38,7.72,7.62,7.75,.12,0,.23,0,.35,0Zm0-4.09c-1.96,.05-3.58-1.5-3.63-3.46,0-.07,0-.13,0-.2-.06-1.96,1.47-3.59,3.43-3.65,.06,0,.13,0,.19,0,1.96-.05,3.58,1.5,3.63,3.46,0,.06,0,.13,0,.19,.06,1.96-1.47,3.59-3.43,3.66-.07,0-.13,0-.2,0Zm18.7-11.28c-1.55,0-3.02,.71-4,1.91v-1.68h-4.23v14.79h4.23v-6.9c0-2.29,1.42-3.77,4-3.77h.64v-4.35h-.64Zm17.26,7.68c.12-4.19-3.18-7.68-7.36-7.8-.14,0-.27,0-.41,0-4.2-.15-7.73,3.13-7.88,7.33,0,.11,0,.21,0,.32,0,4.47,3.54,7.83,8.24,7.83,2.53,.05,4.96-1,6.67-2.87l-2.84-2.46c-.93,1.08-2.29,1.68-3.71,1.65-1.73,.08-3.29-1.01-3.8-2.67h11.02c.06-.44,.09-.89,.09-1.34Zm-7.83-4.15c1.6,0,2.98,1.11,3.34,2.67h-6.64c.34-1.55,1.71-2.66,3.31-2.67Zm15.49,11.83c3.6,0,6.44-1.71,6.44-4.96,0-3.45-3.13-4.18-5.45-4.67-1.51-.32-2.64-.58-2.64-1.42,0-.75,.93-1.07,2.06-1.07,1.36,.03,2.68,.49,3.77,1.3l1.97-2.73c-1.7-1.28-3.76-1.96-5.89-1.94-3.36,0-6.15,1.57-6.15,4.76,0,3.48,3.1,4.18,5.45,4.7,1.51,.35,2.64,.64,2.64,1.48,0,.78-.96,1.19-2.35,1.19-1.56,0-3.06-.57-4.23-1.6l-1.97,2.73c1.79,1.47,4.04,2.27,6.35,2.24Z"/>
  </g>
</svg>